<svg id="Layer_1" data-name="Layer 1" xmlns="http://www.w3.org/2000/svg" viewBox="0 0 859.36 854.03"><defs><style>.cls-1{fill:#2b5f6e;}.cls-2{fill:#4ba9c2;}</style></defs><title>Untitled-1</title><polygon class="cls-1" points="761.74 293.17 859.36 235.6 859.36 352.56 462.73 586.47 462.73 469.51 761.74 293.17"/><polygon class="cls-2" points="859.36 235.6 761.74 293.17 661.05 235.6 661.05 118.65 859.36 235.6"/><polygon class="cls-1" points="661.05 118.65 661.05 235.6 561.89 293.23 561.89 176.28 661.05 118.65"/><polygon class="cls-2" points="165.97 294.5 462.73 469.51 462.73 586.47 66.11 352.56 66.11 235.6 165.97 294.5"/><polygon class="cls-1" points="462.73 0 462.73 118.65 165.97 294.5 66.11 235.6 462.73 0"/><polygon class="cls-1" points="759.84 521.61 858.65 462.91 859.36 464.18 859.36 581.13 528.84 777.75 528.26 777.74 528.84 737.07 462.73 698.09 759.84 521.61"/><polygon class="cls-2" points="859.36 462.49 858.65 462.91 759.84 521.61 462.73 347.23 462.73 229.37 463.35 229.37 859.36 462.49"/><polygon class="cls-2" points="528.84 737.07 528.26 777.74 527.18 854.03 0 542.15 0 425.19 66.11 464.18 164.9 522.45 462.73 698.09 528.84 737.07"/><polygon class="cls-1" points="462.73 229.37 462.73 347.23 165.26 521.81 164.9 522.45 66.11 464.18 462.73 228.58 462.73 229.37"/></svg>