<svg xmlns="http://www.w3.org/2000/svg" fill="none" viewBox="0 0 22 19" height="19" width="22">
<path fill="#686868" d="M6.52592 6.16852L11.8011 0.893368C12.3533 0.331575 13.2484 0.331575 13.8102 0.883846C14.153 1.22664 14.2958 1.71225 14.2006 2.18835L13.296 6.54939H18.6759C20.7231 6.54939 22.1038 8.64422 21.304 10.5296L18.1998 17.7757C17.8951 18.4708 17.2095 18.9279 16.4478 18.9279H7.87803C6.83062 18.9279 5.97365 18.0709 5.97365 17.0235V7.51111C5.97365 7.00645 6.17361 6.52083 6.52592 6.16852ZM4.06927 17.0235C4.06927 18.0709 3.2123 18.9279 2.16488 18.9279C1.11747 18.9279 0.260498 18.0709 0.260498 17.0235V9.40596C0.260498 8.35855 1.11747 7.50158 2.16488 7.50158C3.2123 7.50158 4.06927 8.35855 4.06927 9.40596V17.0235Z" clip-rule="evenodd" fill-rule="evenodd"></path>
</svg>
