<svg fill="#ffffff" xmlns="http://www.w3.org/2000/svg" viewBox="0 0 100 100" width="100px" height="100px"><path d="M 38.859375 19.001953 C 38.859375 19.001953 28.862201 18.800137 18.501953 26.705078 A 1.0001 1.0001 0 0 0 18.230469 27.023438 C 18.230469 27.023438 7.9980469 45.850522 7.9980469 69.142578 A 1.0001 1.0001 0 0 0 8.1523438 69.673828 C 8.1523438 69.673828 15.016424 80.485969 30.966797 81 A 1.0001 1.0001 0 0 0 31.857422 80.513672 L 34.857422 75.513672 A 1.0001 1.0001 0 0 0 34.314453 74.050781 C 29.720984 72.519625 26.873737 69.991524 25.134766 67.914062 C 29.697941 70.33943 38.283787 74 50 74 C 61.715029 74 70.299966 70.339461 74.863281 67.914062 C 73.124213 69.991366 70.276385 72.519851 65.683594 74.050781 A 1.0001 1.0001 0 0 0 65.142578 75.513672 L 68.142578 80.513672 A 1.0001 1.0001 0 0 0 69.03125 81 C 84.981623 80.485969 91.847656 69.673828 91.847656 69.673828 A 1.0001 1.0001 0 0 0 92 69.142578 C 92 45.849535 81.769531 27.023437 81.769531 27.023438 A 1.0001 1.0001 0 0 0 81.496094 26.705078 C 71.135846 18.800137 61.140625 19.001953 61.140625 19.001953 A 1.0001 1.0001 0 0 0 60.509766 19.242188 L 59.347656 20.242188 A 1.0001 1.0001 0 0 0 59.703125 21.955078 C 64.142928 23.336681 67.314304 25.039606 69.894531 26.662109 C 64.135009 24.460571 57.632788 23 50 23 C 42.367212 23 35.864991 24.460571 30.105469 26.662109 C 32.685696 25.039606 35.857072 23.336681 40.296875 21.955078 A 1.0001 1.0001 0 0 0 40.652344 20.242188 L 39.488281 19.242188 A 1.0001 1.0001 0 0 0 38.859375 19.001953 z M 37.107422 21.101562 C 32.502972 22.838669 28.798906 24.839189 26.429688 26.587891 C 23.591383 28.68282 22.220703 30.373047 22.220703 30.373047 A 1.0001 1.0001 0 0 0 23.486328 31.873047 C 30.670429 27.867229 39.177515 25 50 25 C 60.822485 25 69.329571 27.867229 76.513672 31.873047 A 1.0001 1.0001 0 0 0 77.779297 30.373047 C 77.779297 30.373047 76.408617 28.68282 73.570312 26.587891 C 71.201397 24.839413 67.498091 22.838531 62.894531 21.101562 C 65.97279 21.402852 72.843268 22.69934 80.107422 28.177734 C 80.403719 28.730505 89.893107 46.619763 89.984375 68.832031 C 89.569859 69.475803 83.645134 78.239673 69.527344 78.9375 L 67.451172 75.474609 C 75.908304 72.146014 78.919922 65.394531 78.919922 65.394531 A 1.0001 1.0001 0 0 0 77.412109 64.191406 C 77.412109 64.191406 66.686275 72 50 72 C 33.313725 72 22.587891 64.191406 22.587891 64.191406 A 1.0001 1.0001 0 0 0 21.080078 65.394531 C 21.080078 65.394531 24.091052 72.145773 32.546875 75.474609 L 30.470703 78.9375 C 16.354222 78.238987 10.42817 69.475775 10.013672 68.832031 C 10.104952 46.617963 19.598566 28.724276 19.892578 28.175781 C 27.158088 22.697157 34.030836 21.402321 37.107422 21.101562 z M 50 28 C 41.106187 28 32.996427 30.081307 25.259766 34.332031 A 0.50005 0.50005 0 1 0 25.740234 35.208984 C 33.339573 31.033709 41.261813 29 50 29 C 55.024658 29 59.775477 29.698186 64.357422 31.064453 A 0.50024101 0.50024101 0 1 0 64.642578 30.105469 C 59.968523 28.711736 55.117342 28 50 28 z M 66.466797 30.722656 A 0.50005 0.50005 0 0 0 66.335938 31.697266 C 68.008777 32.276364 69.659539 32.930943 71.287109 33.697266 A 0.50005 0.50005 0 1 0 71.712891 32.792969 C 70.048461 32.009291 68.365222 31.340855 66.664062 30.751953 A 0.50005 0.50005 0 0 0 66.466797 30.722656 z M 73.492188 33.755859 A 0.50005 0.50005 0 0 0 73.267578 34.703125 C 73.614912 34.884615 73.948923 35.038068 74.259766 35.208984 A 0.50005 0.50005 0 1 0 74.740234 34.332031 C 74.389077 34.138948 74.051088 33.982917 73.732422 33.816406 A 0.50005 0.50005 0 0 0 73.492188 33.755859 z M 37.5 46 C 32.781392 46 29 50.07506 29 55 C 29 59.92494 32.781392 64 37.5 64 C 42.218608 64 46 59.92494 46 55 C 46 50.07506 42.218608 46 37.5 46 z M 62.5 46 C 57.781392 46 54 50.07506 54 55 C 54 59.92494 57.781392 64 62.5 64 C 67.218608 64 71 59.92494 71 55 C 71 50.07506 67.218608 46 62.5 46 z M 37.5 48 C 41.065669 48 44 51.088384 44 55 C 44 58.911616 41.065669 62 37.5 62 C 33.934331 62 31 58.911616 31 55 C 31 51.088384 33.934331 48 37.5 48 z M 62.5 48 C 66.065669 48 69 51.088384 69 55 C 69 58.911616 66.065669 62 62.5 62 C 58.934331 62 56 58.911616 56 55 C 56 51.088384 58.934331 48 62.5 48 z"/></svg>